<svg width="1400" height="900" viewBox="0 0 1400 900" fill="none" xmlns="http://www.w3.org/2000/svg">
  <rect width="1400" height="900" fill="#F6E4C8"/>
  <rect x="70" y="60" width="1260" height="110" rx="28" fill="#6A3B2C"/>
  <text x="130" y="128" fill="#FFF3D9" font-size="42" font-family="Arial, sans-serif" font-weight="700">CHAI EMPIRE UI KIT</text>
  <rect x="70" y="210" width="480" height="250" rx="28" fill="#FFF6E8" stroke="#D7A26C" stroke-width="8"/>
  <text x="105" y="265" fill="#7B432D" font-size="34" font-family="Arial, sans-serif" font-weight="700">Revenue Panel</text>
  <rect x="100" y="300" width="180" height="54" rx="18" fill="#F3B54E"/>
  <text x="190" y="336" text-anchor="middle" fill="#5A2D20" font-size="28" font-family="Arial, sans-serif" font-weight="700">+ ₹120</text>
  <rect x="310" y="300" width="200" height="54" rx="18" fill="#79B76E"/>
  <text x="410" y="336" text-anchor="middle" fill="#224B30" font-size="28" font-family="Arial, sans-serif" font-weight="700">Rush Active</text>
  <rect x="590" y="210" width="330" height="250" rx="28" fill="#FFF6E8" stroke="#D7A26C" stroke-width="8"/>
  <text x="625" y="265" fill="#7B432D" font-size="34" font-family="Arial, sans-serif" font-weight="700">Upgrade Card</text>
  <rect x="625" y="300" width="260" height="62" rx="20" fill="#C7603C"/>
  <text x="755" y="339" text-anchor="middle" fill="#FFF0D8" font-size="28" font-family="Arial, sans-serif" font-weight="700">Boost Serving Speed</text>
  <rect x="625" y="382" width="180" height="44" rx="16" fill="#F2D09A"/>
  <text x="715" y="411" text-anchor="middle" fill="#71402F" font-size="23" font-family="Arial, sans-serif" font-weight="700">Cost: ₹450</text>
  <rect x="960" y="210" width="370" height="250" rx="28" fill="#FFF6E8" stroke="#D7A26C" stroke-width="8"/>
  <text x="995" y="265" fill="#7B432D" font-size="34" font-family="Arial, sans-serif" font-weight="700">Venue Progress</text>
  <rect x="1000" y="320" width="290" height="34" rx="17" fill="#E6C7A1"/>
  <rect x="1000" y="320" width="188" height="34" rx="17" fill="#C7603C"/>
  <text x="1145" y="404" text-anchor="middle" fill="#71402F" font-size="26" font-family="Arial, sans-serif" font-weight="700">Next: Small Shop</text>
  <rect x="70" y="520" width="1260" height="260" rx="30" fill="#6A3B2C"/>
  <rect x="120" y="580" width="180" height="120" rx="24" fill="#F0B45A"/>
  <rect x="340" y="580" width="180" height="120" rx="24" fill="#D96A43"/>
  <rect x="560" y="580" width="180" height="120" rx="24" fill="#79B76E"/>
  <rect x="780" y="580" width="180" height="120" rx="24" fill="#69A7D8"/>
  <rect x="1000" y="580" width="180" height="120" rx="24" fill="#B376D6"/>
  <text x="210" y="648" text-anchor="middle" fill="#5A2D20" font-size="28" font-family="Arial, sans-serif" font-weight="700">Speed</text>
  <text x="430" y="648" text-anchor="middle" fill="#FFF0D8" font-size="28" font-family="Arial, sans-serif" font-weight="700">Staff</text>
  <text x="650" y="648" text-anchor="middle" fill="#224B30" font-size="28" font-family="Arial, sans-serif" font-weight="700">Quality</text>
  <text x="870" y="648" text-anchor="middle" fill="#173E5A" font-size="28" font-family="Arial, sans-serif" font-weight="700">Menu</text>
  <text x="1090" y="648" text-anchor="middle" fill="#3E214C" font-size="28" font-family="Arial, sans-serif" font-weight="700">Venue</text>
</svg>