<svg width="1600" height="1000" viewBox="0 0 1600 1000" fill="none" xmlns="http://www.w3.org/2000/svg">
  <rect width="1600" height="1000" fill="#F8E6CC"/>
  <text x="90" y="95" fill="#6E3D2B" font-size="44" font-family="Arial, sans-serif" font-weight="700">Chai Empire Character and Prop Sheet</text>
  <g transform="translate(110 180)">
    <circle cx="90" cy="70" r="48" fill="#E8A66D"/>
    <rect x="48" y="120" width="84" height="130" rx="22" fill="#F1B548"/>
    <rect x="30" y="255" width="40" height="118" rx="18" fill="#4A2B23"/>
    <rect x="110" y="255" width="40" height="118" rx="18" fill="#4A2B23"/>
    <rect x="10" y="150" width="40" height="110" rx="16" fill="#E8A66D"/>
    <rect x="130" y="150" width="40" height="110" rx="16" fill="#E8A66D"/>
    <ellipse cx="68" cy="390" rx="34" ry="14" fill="#8C5335"/>
    <ellipse cx="128" cy="390" rx="34" ry="14" fill="#8C5335"/>
    <text x="90" y="455" text-anchor="middle" fill="#6E3D2B" font-size="28" font-family="Arial, sans-serif" font-weight="700">Owner</text>
  </g>
  <g transform="translate(410 180)">
    <circle cx="90" cy="70" r="48" fill="#D89462"/>
    <rect x="48" y="120" width="84" height="130" rx="22" fill="#76B66A"/>
    <rect x="30" y="255" width="40" height="118" rx="18" fill="#4A2B23"/>
    <rect x="110" y="255" width="40" height="118" rx="18" fill="#4A2B23"/>
    <rect x="10" y="150" width="40" height="110" rx="16" fill="#D89462"/>
    <rect x="130" y="150" width="40" height="110" rx="16" fill="#D89462"/>
    <ellipse cx="68" cy="390" rx="34" ry="14" fill="#8C5335"/>
    <ellipse cx="128" cy="390" rx="34" ry="14" fill="#8C5335"/>
    <text x="90" y="455" text-anchor="middle" fill="#6E3D2B" font-size="28" font-family="Arial, sans-serif" font-weight="700">Helper</text>
  </g>
  <g transform="translate(710 180)">
    <circle cx="90" cy="70" r="48" fill="#E2A870"/>
    <rect x="48" y="120" width="84" height="130" rx="22" fill="#D96A43"/>
    <rect x="30" y="255" width="40" height="118" rx="18" fill="#4A2B23"/>
    <rect x="110" y="255" width="40" height="118" rx="18" fill="#4A2B23"/>
    <rect x="10" y="150" width="40" height="110" rx="16" fill="#E2A870"/>
    <rect x="130" y="150" width="40" height="110" rx="16" fill="#E2A870"/>
    <ellipse cx="68" cy="390" rx="34" ry="14" fill="#8C5335"/>
    <ellipse cx="128" cy="390" rx="34" ry="14" fill="#8C5335"/>
    <text x="90" y="455" text-anchor="middle" fill="#6E3D2B" font-size="28" font-family="Arial, sans-serif" font-weight="700">Customer</text>
  </g>
  <g transform="translate(1020 180)">
    <ellipse cx="90" cy="300" rx="82" ry="20" fill="#8B5438" opacity="0.35"/>
    <rect x="20" y="170" width="140" height="120" rx="28" fill="#B35A37"/>
    <rect x="40" y="85" width="100" height="110" rx="22" fill="#675B53"/>
    <rect x="72" y="48" width="36" height="54" rx="12" fill="#7A6A60"/>
    <rect x="165" y="205" width="80" height="18" rx="9" fill="#6E3D2B"/>
    <text x="110" y="385" text-anchor="middle" fill="#6E3D2B" font-size="28" font-family="Arial, sans-serif" font-weight="700">Tea Kettle</text>
  </g>
  <g transform="translate(1280 180)">
    <ellipse cx="90" cy="300" rx="82" ry="20" fill="#8B5438" opacity="0.35"/>
    <rect x="18" y="190" width="144" height="95" rx="24" fill="#6F3A28"/>
    <rect x="36" y="120" width="108" height="78" rx="18" fill="#C85C39"/>
    <rect x="48" y="78" width="84" height="50" rx="12" fill="#F3D4A0"/>
    <text x="90" y="385" text-anchor="middle" fill="#6E3D2B" font-size="28" font-family="Arial, sans-serif" font-weight="700">Counter</text>
  </g>
  <g transform="translate(180 650)">
    <ellipse cx="70" cy="48" rx="62" ry="18" fill="#B66B3C"/>
    <rect x="20" y="48" width="100" height="26" rx="12" fill="#E6C17A"/>
    <text x="70" y="130" text-anchor="middle" fill="#6E3D2B" font-size="26" font-family="Arial, sans-serif" font-weight="700">Kulhad Cup</text>
  </g>
  <g transform="translate(430 650)">
    <rect x="15" y="12" width="110" height="72" rx="18" fill="#F0B45A"/>
    <rect x="50" y="-6" width="40" height="32" rx="12" fill="#C7603C"/>
    <text x="70" y="130" text-anchor="middle" fill="#6E3D2B" font-size="26" font-family="Arial, sans-serif" font-weight="700">Cash Box</text>
  </g>
  <g transform="translate(690 650)">
    <rect x="20" y="10" width="100" height="90" rx="16" fill="#76B66A"/>
    <rect x="38" y="26" width="64" height="18" rx="9" fill="#DFF3C7"/>
    <rect x="38" y="56" width="64" height="18" rx="9" fill="#DFF3C7"/>
    <text x="70" y="130" text-anchor="middle" fill="#6E3D2B" font-size="26" font-family="Arial, sans-serif" font-weight="700">Menu Board</text>
  </g>
</svg>